<?xml version="1.0" encoding="utf-8"?>
<!-- Generator: Adobe Illustrator 23.1.1, SVG Export Plug-In . SVG Version: 6.00 Build 0)  -->
<svg version="1.1" id="Layer_1" xmlns="http://www.w3.org/2000/svg" xmlns:xlink="http://www.w3.org/1999/xlink" x="0px" y="0px"
	 viewBox="0 0 252.9 212.6" style="enable-background:new 0 0 252.9 212.6;" xml:space="preserve">
<style type="text/css">
	.st0{fill:#090921;stroke:#090921;stroke-miterlimit:10;}
</style>
<g>
	<path class="st0" d="M126,212.6c-26.2,0-52.3,0-78.5,0c-9.4,0-11.8-2.4-11.8-11.8c0-27.5,0.1-55-0.1-82.5c0-5.3,1.7-8.7,6-11.6
		c26-17.4,52-35,77.9-52.5c5.6-3.8,7.9-3.8,13.6,0.1c26,17.5,51.9,35,77.9,52.5c4.1,2.8,6,6,6,11.1c-0.2,27.5-0.1,55-0.1,82.5
		c0,9.7-2.4,12.2-12,12.2C178.7,212.6,152.3,212.6,126,212.6z"/>
	<path class="st0" d="M19.3,106.8c-7.2-0.1-20.6-14.9-19.2-20.5c0.7-2.8,3.2-5.8,5.8-7.5c27-18.3,54.2-36.4,81.2-54.6
		C97.9,17,108.8,9.8,119.4,2.4c4.8-3.3,9-3.2,13.8,0C171,28,208.9,53.3,246.8,78.8c7.5,5.1,8,9.5,2,16.3c-2,2.2-3.9,4.5-5.9,6.8
		c-5.4,6-8.9,6.5-15.5,2.1c-13.4-9-26.8-18-40.3-26.9c-17.9-11.9-35.7-23.9-53.6-35.8c-6.1-4-8.5-4.1-14.5,0
		C87.9,62,56.7,82.8,25.6,103.6C23.3,105.1,20.7,106.1,19.3,106.8z"/>
</g>
</svg>
