<?xml version="1.0" encoding="utf-8"?>
<!-- Generator: Adobe Illustrator 23.1.1, SVG Export Plug-In . SVG Version: 6.00 Build 0)  -->
<svg version="1.1" id="Layer_1" xmlns="http://www.w3.org/2000/svg" xmlns:xlink="http://www.w3.org/1999/xlink" x="0px" y="0px"
	 viewBox="0 0 25 20" style="enable-background:new 0 0 25 20;" xml:space="preserve">
<style type="text/css">
	.st0{fill-rule:evenodd;clip-rule:evenodd;fill:#5787C7;}
</style>
<path class="st0" d="M24.6,19.1c-0.6,0.9-1.9,1.1-2.8,0.5L13.5,14c-0.6-0.4-0.9-1-0.9-1.7c-2.5,2.6-6.5,3.1-9.5,1
	C-0.1,11-1,6.5,1.3,3.2c0,0,0,0,0-0.1C3.6-0.2,8.2-1,11.5,1.3c3,2,4,5.9,2.4,9.2c0.6-0.3,1.4-0.2,1.9,0.2l8.3,5.7
	C25,17,25.2,18.2,24.6,19.1C24.6,19.1,24.6,19.1,24.6,19.1z M12.3,6.4c-0.2-1.3-1-2.5-2.1-3.3c-2.3-1.6-5.5-1-7.1,1.3
	c-1.6,2.3-1,5.4,1.3,7c0,0,0,0,0,0c2.3,1.6,5.5,1,7.1-1.3C12.3,9.1,12.6,7.7,12.3,6.4z"/>
</svg>
