<svg xmlns="http://www.w3.org/2000/svg" width="49.94" height="40" viewBox="0 0 24.97 20">
  <defs>
    <style>
      .cls-1 {
        fill: #fff;
        fill-rule: evenodd;
      }
    </style>
  </defs>
  <path class="cls-1" d="M1078.62,89.137a2.032,2.032,0,0,1-2.81.506l-8.27-5.689a1.989,1.989,0,0,1-.87-1.714,7.362,7.362,0,0,1-9.51,1.009,7.244,7.244,0,0,1-1.86-10.121,7.366,7.366,0,0,1,10.19-1.842,7.259,7.259,0,0,1,2.41,9.18,2.029,2.029,0,0,1,1.93.2l8.28,5.688A2,2,0,0,1,1078.62,89.137Zm-12.27-12.776a5.058,5.058,0,0,0-2.12-3.261,5.141,5.141,0,0,0-7.11,1.283,5.055,5.055,0,0,0,1.3,7.057,5.128,5.128,0,0,0,7.1-1.283A5.017,5.017,0,0,0,1066.35,76.361Z" transform="translate(-1054 -70)"/>
</svg>
