<?xml version="1.0" encoding="utf-8"?>
<!-- Generator: Adobe Illustrator 23.0.6, SVG Export Plug-In . SVG Version: 6.00 Build 0)  -->
<svg version="1.1" id="Layer_1" xmlns="http://www.w3.org/2000/svg" xmlns:xlink="http://www.w3.org/1999/xlink" x="0px" y="0px"
	 viewBox="0 0 717.82 73.2" style="enable-background:new 0 0 717.82 73.2;" xml:space="preserve">
<style type="text/css">
	.st0{fill:#FFFFFF;}
	.st1{fill:#4888C7;}
	.st2{fill:#7BB3E2;}
	.st3{fill:#312782;}
</style>
<g>
	<g>
		<g>
			<path class="st0" d="M91.84,13.78h7.77l17.95,23.59V13.78h8.32v38.31h-7.17l-18.56-24.36v24.36h-8.32V13.78z"/>
			<path class="st0" d="M131.65,13.78h8.43v38.31h-8.43V13.78z"/>
			<path class="st0" d="M156.75,33.04v-0.11c0-10.89,8.21-19.81,19.98-19.81c7.22,0,11.55,2.41,15.11,5.91l-5.36,6.19
				c-2.96-2.68-5.97-4.32-9.8-4.32c-6.46,0-11.11,5.36-11.11,11.93v0.11c0,6.57,4.54,12.04,11.11,12.04c4.38,0,7.06-1.75,10.07-4.49
				l5.36,5.42c-3.94,4.21-8.32,6.84-15.71,6.84C165.12,52.75,156.75,44.04,156.75,33.04z"/>
			<path class="st0" d="M215.15,22.75h8.65L212.52,52.8c-2.24,5.97-4.65,8.21-9.63,8.21c-3.01,0-5.25-0.77-7.39-2.03l2.79-6.02
				c1.09,0.66,2.46,1.15,3.56,1.15c1.42,0,2.19-0.44,2.9-1.92l-11.49-29.45h8.81l6.68,19.98L215.15,22.75z"/>
			<path class="st0" d="M235.52,48.26v3.83h-8.32V12.13h8.32v14.83c2.03-2.74,4.82-4.76,9.14-4.76c6.84,0,13.35,5.36,13.35,15.16
				v0.11c0,9.8-6.4,15.16-13.35,15.16C240.22,52.64,237.49,50.61,235.52,48.26z M249.69,37.48v-0.11c0-4.87-3.28-8.1-7.17-8.1
				c-3.89,0-7.12,3.23-7.12,8.1v0.11c0,4.87,3.23,8.1,7.12,8.1C246.41,45.58,249.69,42.4,249.69,37.48z"/>
			<path class="st0" d="M261.19,37.59v-0.11c0-8.37,5.97-15.27,14.5-15.27c9.8,0,14.29,7.61,14.29,15.93c0,0.66-0.06,1.42-0.11,2.19
				h-20.42c0.82,3.78,3.45,5.75,7.17,5.75c2.79,0,4.82-0.88,7.12-3.01l4.76,4.21c-2.74,3.39-6.68,5.47-11.99,5.47
				C267.7,52.75,261.19,46.56,261.19,37.59z M281.88,35.12c-0.49-3.72-2.68-6.24-6.18-6.24c-3.45,0-5.69,2.46-6.35,6.24H281.88z"/>
			<path class="st0" d="M293.87,22.75h8.32v5.91c1.7-4.05,4.43-6.68,9.36-6.46v8.7h-0.44c-5.53,0-8.92,3.34-8.92,10.34v10.84h-8.32
				V22.75z"/>
		</g>
		<g>
			<path class="st0" d="M546.94,32.91V32.8c0-10.96,8.26-19.94,20.1-19.94c7.27,0,11.62,2.42,15.2,5.95l-5.4,6.22
				c-2.97-2.7-6-4.35-9.86-4.35c-6.5,0-11.18,5.4-11.18,12.01v0.11c0,6.61,4.57,12.12,11.18,12.12c4.41,0,7.1-1.76,10.13-4.52
				l5.4,5.45c-3.96,4.24-8.37,6.88-15.81,6.88C555.36,52.74,546.94,43.98,546.94,32.91z"/>
			<path class="st0" d="M584.13,37.48v-0.11c0-8.43,6-15.37,14.59-15.37c9.86,0,14.37,7.66,14.37,16.03c0,0.66-0.06,1.43-0.11,2.2
				h-20.54c0.83,3.8,3.47,5.78,7.21,5.78c2.81,0,4.85-0.88,7.16-3.03l4.79,4.24c-2.75,3.41-6.72,5.51-12.06,5.51
				C590.69,52.74,584.13,46.51,584.13,37.48z M604.95,35c-0.5-3.74-2.7-6.28-6.22-6.28c-3.47,0-5.73,2.48-6.39,6.28H604.95z"/>
			<path class="st0" d="M617.04,22.56h8.37v4.19c1.93-2.48,4.41-4.74,8.65-4.74c6.33,0,10.02,4.19,10.02,10.96v19.11h-8.37V35.61
				c0-3.97-1.87-6-5.07-6c-3.19,0-5.23,2.04-5.23,6v16.47h-8.37V22.56z"/>
			<path class="st0" d="M650.43,43.71V29.72h-3.52v-7.16h3.52v-7.54h8.37v7.54h6.94v7.16h-6.94v12.61c0,1.93,0.83,2.86,2.7,2.86
				c1.54,0,2.92-0.39,4.13-1.05v6.72c-1.76,1.05-3.8,1.71-6.61,1.71C653.9,52.57,650.43,50.53,650.43,43.71z"/>
			<path class="st0" d="M669.62,22.56h8.37v5.95c1.71-4.08,4.46-6.72,9.42-6.5v8.76h-0.44c-5.56,0-8.98,3.36-8.98,10.41v10.9h-8.37
				V22.56z"/>
			<path class="st0" d="M688.85,37.48v-0.11c0-8.43,6-15.37,14.59-15.37c9.86,0,14.37,7.66,14.37,16.03c0,0.66-0.06,1.43-0.11,2.2
				h-20.54c0.83,3.8,3.47,5.78,7.21,5.78c2.81,0,4.85-0.88,7.16-3.03l4.79,4.24c-2.75,3.41-6.72,5.51-12.06,5.51
				C695.4,52.74,688.85,46.51,688.85,37.48z M709.67,35c-0.5-3.74-2.7-6.28-6.22-6.28c-3.47,0-5.73,2.48-6.39,6.28H709.67z"/>
		</g>
		<g>
			<path class="st0" d="M324.41,46.72l4.93-5.9c3.41,2.82,6.99,4.6,11.32,4.6c3.41,0,5.47-1.35,5.47-3.57v-0.11
				c0-2.11-1.3-3.19-7.64-4.82c-7.64-1.95-12.56-4.06-12.56-11.59v-0.11c0-6.88,5.52-11.43,13.27-11.43
				c5.52,0,10.24,1.73,14.08,4.82l-4.33,6.28c-3.36-2.33-6.66-3.74-9.86-3.74c-3.19,0-4.87,1.46-4.87,3.3v0.11
				c0,2.49,1.62,3.3,8.18,4.98c7.69,2,12.02,4.77,12.02,11.37v0.11c0,7.53-5.74,11.75-13.92,11.75
				C334.75,52.78,328.95,50.78,324.41,46.72z"/>
			<path class="st0" d="M357.11,37.89v-0.11c0-8.29,5.9-15.11,14.35-15.11c9.69,0,14.14,7.53,14.14,15.76
				c0,0.65-0.05,1.41-0.11,2.17h-20.2c0.81,3.74,3.41,5.69,7.09,5.69c2.76,0,4.77-0.87,7.04-2.98l4.71,4.17
				c-2.71,3.36-6.61,5.42-11.86,5.42C363.55,52.89,357.11,46.77,357.11,37.89z M377.58,35.45c-0.49-3.68-2.65-6.17-6.12-6.17
				c-3.41,0-5.63,2.44-6.28,6.17H377.58z"/>
			<path class="st0" d="M388.02,37.89v-0.11c0-8.29,6.34-15.11,15.22-15.11c5.47,0,8.88,1.84,11.59,4.87l-5.04,5.42
				c-1.84-1.95-3.68-3.19-6.61-3.19c-4.12,0-7.04,3.63-7.04,7.91v0.11c0,4.44,2.87,8.02,7.37,8.02c2.76,0,4.66-1.19,6.66-3.09
				l4.82,4.87c-2.82,3.09-6.07,5.31-11.86,5.31C394.41,52.89,388.02,46.18,388.02,37.89z"/>
			<path class="st0" d="M417.85,42.01V23.21h8.23v16.19c0,3.9,1.84,5.9,4.98,5.9c3.14,0,5.14-2,5.14-5.9V23.21h8.23v29.03h-8.23
				v-4.12c-1.9,2.44-4.33,4.66-8.5,4.66C421.48,52.78,417.85,48.67,417.85,42.01z"/>
			<path class="st0" d="M448.76,23.21h8.23v5.85c1.68-4.01,4.39-6.61,9.26-6.39v8.61h-0.43c-5.47,0-8.83,3.3-8.83,10.24v10.72h-8.23
				V23.21z"/>
			<path class="st0" d="M470.04,12.71h8.67v7.31h-8.67V12.71z M470.26,23.21h8.23v29.03h-8.23V23.21z"/>
			<path class="st0" d="M486.06,44.01V30.25h-3.47v-7.04h3.47v-7.42h8.23v7.42h6.82v7.04h-6.82v12.4c0,1.9,0.81,2.82,2.65,2.82
				c1.52,0,2.87-0.38,4.06-1.03v6.61c-1.73,1.03-3.74,1.68-6.5,1.68C489.48,52.73,486.06,50.72,486.06,44.01z"/>
			<path class="st0" d="M526.25,23.21h8.56l-11.16,29.73c-2.22,5.9-4.6,8.12-9.53,8.12c-2.98,0-5.2-0.76-7.31-2l2.76-5.96
				c1.08,0.65,2.44,1.14,3.52,1.14c1.41,0,2.17-0.43,2.87-1.9l-11.37-29.14h8.72l6.61,19.77L526.25,23.21z"/>
		</g>
	</g>
	<g>
		<path class="st1" d="M0,36.7C-0.15,35.88,12.2,13.2,17.87,2.39C18.78,0.65,19.8-0.02,21.7,0c11.96,0.11,23.91,0.05,36.36,0.05
			c-6.5,12.35-12.66,24.66-18.98,36.67c-1.09,0-2.43-0.06-3.56-0.06C23.68,36.69,11.84,36.69,0,36.7z"/>
		<path class="st2" d="M0,36.7c11.84-0.01,23.67,0,35.51-0.03c1.14,0,3.58-0.06,3.57-0.06c-0.19,0.68,0.18,1.2,0.46,1.72
			c5.71,10.71,11.43,21.42,17.16,32.13c0.42,0.78,0.73,1.72,1.71,1.94c-0.64,1.15-1.7,0.73-2.59,0.73
			c-11.46,0.03-22.91,0-34.37,0.03c-1.41,0-2.45-0.19-3.27-1.76C12.24,60.09,6.2,48.84,0.19,37.57C0.06,37.32,0.06,36.99,0,36.7z"/>
		<path class="st3" d="M58.42,72.4c-0.98-0.22-1.29-1.16-1.71-1.94c-5.73-10.7-11.45-21.41-17.16-32.13
			c-0.28-0.52-0.65-1.04-0.46-1.72c12.61,0,25.22,0,38.38,0C70.97,48.82,64.69,60.61,58.42,72.4z"/>
	</g>
</g>
</svg>
